<svg width="55" height="37" viewBox="0 0 55 37" fill="none" xmlns="http://www.w3.org/2000/svg">
<path d="M15.3281 10.6406V15.7734H0.28125V10.6406H15.3281ZM3.72656 4.35938H11.0625V28.0547C11.0625 28.7578 11.1484 29.2969 11.3203 29.6719C11.4922 30.0469 11.7734 30.3125 12.1641 30.4688C12.5547 30.6094 13.0547 30.6797 13.6641 30.6797C14.1016 30.6797 14.4766 30.6641 14.7891 30.6328C15.1016 30.6016 15.3906 30.5625 15.6562 30.5156V35.8125C15.0312 36.0156 14.3672 36.1719 13.6641 36.2812C12.9609 36.4062 12.1953 36.4688 11.3672 36.4688C9.78906 36.4688 8.42188 36.2109 7.26562 35.6953C6.125 35.1797 5.25 34.3672 4.64062 33.2578C4.03125 32.1328 3.72656 30.6719 3.72656 28.875V4.35938ZM25.9922 0V36H18.6797V0H25.9922ZM25.0312 22.4297L23.2031 22.4766C23.2031 20.6953 23.4219 19.0625 23.8594 17.5781C24.3125 16.0781 24.9531 14.7734 25.7812 13.6641C26.6094 12.5547 27.6016 11.6953 28.7578 11.0859C29.9297 10.4766 31.2188 10.1719 32.625 10.1719C33.875 10.1719 35.0156 10.3516 36.0469 10.7109C37.0781 11.0703 37.9688 11.6406 38.7188 12.4219C39.4688 13.2031 40.0469 14.2266 40.4531 15.4922C40.8594 16.7578 41.0625 18.2969 41.0625 20.1094V36H33.7031V20.0625C33.7031 18.9844 33.5469 18.1406 33.2344 17.5312C32.9375 16.9219 32.5 16.4922 31.9219 16.2422C31.3594 15.9922 30.6719 15.8672 29.8594 15.8672C28.9062 15.8672 28.1172 16.0391 27.4922 16.3828C26.8672 16.7109 26.375 17.1719 26.0156 17.7656C25.6562 18.3594 25.3984 19.0547 25.2422 19.8516C25.1016 20.6484 25.0312 21.5078 25.0312 22.4297Z" fill="white"/>
<path d="M46.2422 32.5312C46.2422 31.4688 46.6172 30.5781 47.3672 29.8594C48.1328 29.1406 49.125 28.7812 50.3438 28.7812C51.5781 28.7812 52.5625 29.1406 53.2969 29.8594C54.0469 30.5781 54.4219 31.4688 54.4219 32.5312C54.4219 33.5781 54.0469 34.4609 53.2969 35.1797C52.5625 35.8984 51.5781 36.2578 50.3438 36.2578C49.125 36.2578 48.1328 35.8984 47.3672 35.1797C46.6172 34.4609 46.2422 33.5781 46.2422 32.5312Z" fill="#BD93F9"/>
</svg>
